<svg class="scene" viewBox="0 0 1300 360" xmlns="http://www.w3.org/2000/svg" style="overflow: visible" role="img" aria-label="A git repo of small text files, with an arrow marked refers to, pointing at a store of parquet files named by hash">
  <defs>
    <filter id="dc-wob" x="-10%" y="-10%" width="120%" height="120%">
      <feTurbulence type="fractalNoise" baseFrequency="0.035" numOctaves="2" seed="31" result="noise"/>
      <feDisplacementMap in="SourceGraphic" in2="noise" scale="4" xChannelSelector="R" yChannelSelector="G"/>
    </filter>
    <pattern id="dc-hatch" width="9" height="9" patternUnits="userSpaceOnUse" patternTransform="rotate(45)">
      <line x1="0" y1="0" x2="0" y2="9" stroke="#8C877D" stroke-width="1.4"/>
    </pattern>
  </defs>
  <!-- the split: a git repo of small text files refers to an object store of parquet files named by hash -->
  <g fill="none" stroke-linecap="round" stroke-linejoin="round" stroke="#3A3834" stroke-width="3.2" filter="url(#dc-wob)"><rect id="dc-git" x="20" y="20" width="500" height="320" rx="18" fill="#F5F1E8"/><use href="#dc-git" transform="translate(2 2)" opacity="0.4"/><path d="M466 46 V86 M466 74 C 466 62, 490 62, 490 52" stroke-width="2.4"/><circle cx="466" cy="46" r="5" fill="#F5F1E8" stroke-width="2.4"/><circle cx="466" cy="92" r="5" fill="#F5F1E8" stroke-width="2.4"/><circle cx="490" cy="48" r="5" fill="#F5F1E8" stroke-width="2.4"/><path d="M56 46 H82 L94 58 V94 H56 Z" fill="#F5F1E8"/><path d="M82 46 V58 H94" stroke-width="2"/><path d="M64 68 H86 M64 76 H86 M64 84 H78" stroke-width="1.8"/><path d="M56 112 H82 L94 124 V160 H56 Z" fill="#F5F1E8"/><path d="M82 112 V124 H94" stroke-width="2"/><path d="M64 134 H86 M64 142 H86 M64 150 H78" stroke-width="1.8"/><path d="M56 178 H82 L94 190 V226 H56 Z" fill="#F5F1E8"/><path d="M82 178 V190 H94" stroke-width="2"/><path d="M64 200 H86 M64 208 H86 M64 216 H78" stroke-width="1.8"/><path d="M56 244 H82 L94 256 V292 H56 Z" fill="#F5F1E8"/><path d="M82 244 V256 H94" stroke-width="2"/><path d="M64 266 H86 M64 274 H86 M64 282 H78" stroke-width="1.8"/><rect id="dc-store" x="780" y="20" width="500" height="320" rx="18" fill="#F5F1E8"/><use href="#dc-store" transform="translate(2 2)" opacity="0.4"/><rect x="814" y="46" width="40" height="48" rx="4" fill="#F5F1E8" stroke="none"/><rect x="814" y="46" width="40" height="12" fill="url(#dc-hatch)" stroke="none"/><rect x="814" y="46" width="40" height="48" rx="4"/><path d="M814 58 H854" stroke-width="2"/><path d="M827.3 58 V94 M840.7 58 V94" stroke-width="1.8"/><rect x="814" y="112" width="40" height="48" rx="4" fill="#F5F1E8" stroke="none"/><rect x="814" y="112" width="40" height="12" fill="url(#dc-hatch)" stroke="none"/><rect x="814" y="112" width="40" height="48" rx="4"/><path d="M814 124 H854" stroke-width="2"/><path d="M827.3 124 V160 M840.7 124 V160" stroke-width="1.8"/><rect x="814" y="178" width="40" height="48" rx="4" fill="#F5F1E8" stroke="none"/><rect x="814" y="178" width="40" height="12" fill="url(#dc-hatch)" stroke="none"/><rect x="814" y="178" width="40" height="48" rx="4"/><path d="M814 190 H854" stroke-width="2"/><path d="M827.3 190 V226 M840.7 190 V226" stroke-width="1.8"/><rect x="814" y="244" width="40" height="48" rx="4" fill="#F5F1E8" stroke="none"/><rect x="814" y="244" width="40" height="12" fill="url(#dc-hatch)" stroke="none"/><rect x="814" y="244" width="40" height="48" rx="4"/><path d="M814 256 H854" stroke-width="2"/><path d="M827.3 256 V292 M840.7 256 V292" stroke-width="1.8"/><path d="M536 180 C 600 162, 700 162, 764 180"/><path d="M750.5 170.5 L764 180 L748.6 184.6"/></g><foreignObject x="26" y="304" width="240" height="30"><div xmlns="http://www.w3.org/1999/xhtml" class="sc-tag sc-left" style="padding-left: 22px;">git</div></foreignObject><foreignObject x="786" y="304" width="300" height="30"><div xmlns="http://www.w3.org/1999/xhtml" class="sc-tag sc-left" style="padding-left: 22px;">storage</div></foreignObject><foreignObject x="108" y="55" width="400" height="30"><div xmlns="http://www.w3.org/1999/xhtml" class="sc-name" style="justify-content: flex-start; color: #2B2A27;">manifest.json</div></foreignObject><foreignObject x="108" y="121" width="400" height="30"><div xmlns="http://www.w3.org/1999/xhtml" class="sc-name" style="justify-content: flex-start; color: #2B2A27;">lb/metadata.json</div></foreignObject><foreignObject x="108" y="187" width="400" height="30"><div xmlns="http://www.w3.org/1999/xhtml" class="sc-name" style="justify-content: flex-start; color: #2B2A27;">lb/version_history.json</div></foreignObject><foreignObject x="108" y="253" width="400" height="30"><div xmlns="http://www.w3.org/1999/xhtml" class="sc-name" style="justify-content: flex-start; color: #2B2A27;">derive_adlb.R</div></foreignObject><foreignObject x="870" y="55" width="400" height="30"><div xmlns="http://www.w3.org/1999/xhtml" class="sc-name" style="justify-content: flex-start; color: #2B2A27;">lb/3f9a1c&#8230;.parquet</div></foreignObject><foreignObject x="870" y="121" width="400" height="30"><div xmlns="http://www.w3.org/1999/xhtml" class="sc-name" style="justify-content: flex-start; color: #2B2A27;">lb/b27e04&#8230;.parquet</div></foreignObject><foreignObject x="870" y="187" width="400" height="30"><div xmlns="http://www.w3.org/1999/xhtml" class="sc-name" style="justify-content: flex-start; color: #2B2A27;">adlb/c41e9d&#8230;.parquet</div></foreignObject><foreignObject x="870" y="253" width="400" height="30"><div xmlns="http://www.w3.org/1999/xhtml" class="sc-name" style="justify-content: flex-start; color: #2B2A27;">adlb/07ad55&#8230;.parquet</div></foreignObject><foreignObject x="550" y="112" width="200" height="40"><div xmlns="http://www.w3.org/1999/xhtml" class="sc-note" style="text-align: center; font-size: 34px;">refers to</div></foreignObject>
  
</svg>
